<svg xmlns="http://www.w3.org/2000/svg" viewBox="0 0 220 620" role="img" aria-label="DSP whiskey bottle">
  <defs>
    <linearGradient id="glass" x1="0" x2="1" y1="0" y2="1">
      <stop offset="0" stop-color="#9b2520"/>
      <stop offset="0.5" stop-color="#5a1214"/>
      <stop offset="1" stop-color="#1b0d0a"/>
    </linearGradient>
    <linearGradient id="gold" x1="0" x2="1">
      <stop offset="0" stop-color="#fff1a8"/>
      <stop offset="0.45" stop-color="#d7aa37"/>
      <stop offset="1" stop-color="#7b4f10"/>
    </linearGradient>
    <filter id="shadow" x="-30%" y="-20%" width="160%" height="150%">
      <feDropShadow dx="12" dy="18" stdDeviation="8" flood-color="#000" flood-opacity=".45"/>
    </filter>
  </defs>
  <g filter="url(#shadow)">
    <path d="M84 12h52v74c0 18 9 33 23 43 25 18 39 46 39 76v322c0 42-34 76-76 76H98c-42 0-76-34-76-76V205c0-30 14-58 39-76 14-10 23-25 23-43V12Z" fill="url(#glass)" stroke="url(#gold)" stroke-width="10"/>
    <path d="M78 12h64v58H78z" fill="url(#gold)"/>
    <path d="M48 238h124v144H48z" fill="#fff3d4" stroke="url(#gold)" stroke-width="8"/>
    <path d="M68 264h84v92H68z" fill="#7b1719"/>
    <text x="110" y="320" text-anchor="middle" font-family="Arial Black, Arial, sans-serif" font-size="38" font-weight="900" fill="#fff3d4">DSP</text>
    <path d="M68 404h84" stroke="#d7aa37" stroke-width="8" stroke-linecap="round"/>
    <path d="M66 470c22 18 66 18 88 0" stroke="#fff3d4" stroke-width="8" fill="none" opacity=".45"/>
    <path d="M58 184c24-26 78-34 108-4" stroke="#fff3d4" stroke-width="8" fill="none" opacity=".18"/>
  </g>
</svg>
